<svg width="26" height="30" viewBox="0 0 26 30" fill="none" xmlns="http://www.w3.org/2000/svg">
<g id="fluent:delete-32-regular">
<path id="Vector" d="M10.5 5.50012V6.00012H15.5V5.50012C15.5 4.83708 15.2366 4.2012 14.7678 3.73236C14.2989 3.26351 13.663 3.00012 13 3.00012C12.337 3.00012 11.7011 3.26351 11.2322 3.73236C10.7634 4.2012 10.5 4.83708 10.5 5.50012ZM8.5 6.00012V5.50012C8.5 4.30665 8.97411 3.16206 9.81802 2.31814C10.6619 1.47423 11.8065 1.00012 13 1.00012C14.1935 1.00012 15.3381 1.47423 16.182 2.31814C17.0259 3.16206 17.5 4.30665 17.5 5.50012V6.00012H25C25.2652 6.00012 25.5196 6.10548 25.7071 6.29302C25.8946 6.48055 26 6.73491 26 7.00012C26 7.26534 25.8946 7.51969 25.7071 7.70723C25.5196 7.89476 25.2652 8.00012 25 8.00012H23.492L21.6 24.5681C21.4605 25.7883 20.8768 26.9145 19.9601 27.7319C19.0435 28.5493 17.8581 29.0007 16.63 29.0001H9.37C8.14186 29.0007 6.95647 28.5493 6.03985 27.7319C5.12323 26.9145 4.53952 25.7883 4.4 24.5681L2.508 8.00012H1C0.734784 8.00012 0.48043 7.89476 0.292893 7.70723C0.105357 7.51969 0 7.26534 0 7.00012C0 6.73491 0.105357 6.48055 0.292893 6.29302C0.48043 6.10548 0.734784 6.00012 1 6.00012H8.5ZM6.388 24.3401C6.47149 25.072 6.82135 25.7476 7.37092 26.2382C7.92049 26.7288 8.63134 27 9.368 27.0001H16.631C17.3677 27 18.0785 26.7288 18.6281 26.2382C19.1776 25.7476 19.5275 25.072 19.611 24.3401L21.48 8.00012H4.521L6.388 24.3401ZM10 11.5001C10.2652 11.5001 10.5196 11.6055 10.7071 11.793C10.8946 11.9806 11 12.2349 11 12.5001V22.5001C11 22.7653 10.8946 23.0197 10.7071 23.2072C10.5196 23.3948 10.2652 23.5001 10 23.5001C9.73478 23.5001 9.48043 23.3948 9.29289 23.2072C9.10536 23.0197 9 22.7653 9 22.5001V12.5001C9 12.2349 9.10536 11.9806 9.29289 11.793C9.48043 11.6055 9.73478 11.5001 10 11.5001ZM17 12.5001C17 12.2349 16.8946 11.9806 16.7071 11.793C16.5196 11.6055 16.2652 11.5001 16 11.5001C15.7348 11.5001 15.4804 11.6055 15.2929 11.793C15.1054 11.9806 15 12.2349 15 12.5001V22.5001C15 22.7653 15.1054 23.0197 15.2929 23.2072C15.4804 23.3948 15.7348 23.5001 16 23.5001C16.2652 23.5001 16.5196 23.3948 16.7071 23.2072C16.8946 23.0197 17 22.7653 17 22.5001V12.5001Z" fill="#5E5E75"/>
</g>
</svg>
